<svg id="visual" viewBox="0 0 900 200" width="900" height="200" xmlns="http://www.w3.org/2000/svg" xmlns:xlink="http://www.w3.org/1999/xlink" version="1.1"><rect x="0" y="0" width="900" height="200" fill="#9d71b3"></rect><path d="M0 137L16.7 137.3C33.3 137.7 66.7 138.3 100 143.3C133.3 148.3 166.7 157.7 200 157.5C233.3 157.3 266.7 147.7 300 146.7C333.3 145.7 366.7 153.3 400 154.3C433.3 155.3 466.7 149.7 500 145.5C533.3 141.3 566.7 138.7 600 141.3C633.3 144 666.7 152 700 157.2C733.3 162.3 766.7 164.7 800 161.7C833.3 158.7 866.7 150.3 883.3 146.2L900 142L900 0L883.3 0C866.7 0 833.3 0 800 0C766.7 0 733.3 0 700 0C666.7 0 633.3 0 600 0C566.7 0 533.3 0 500 0C466.7 0 433.3 0 400 0C366.7 0 333.3 0 300 0C266.7 0 233.3 0 200 0C166.7 0 133.3 0 100 0C66.7 0 33.3 0 16.7 0L0 0Z" fill="#9d71b3"></path><path d="M0 136L16.7 133.3C33.3 130.7 66.7 125.3 100 121.2C133.3 117 166.7 114 200 113.7C233.3 113.3 266.7 115.7 300 118C333.3 120.3 366.7 122.7 400 124.7C433.3 126.7 466.7 128.3 500 130.5C533.3 132.7 566.7 135.3 600 133.2C633.3 131 666.7 124 700 123.7C733.3 123.3 766.7 129.7 800 131.8C833.3 134 866.7 132 883.3 131L900 130L900 0L883.3 0C866.7 0 833.3 0 800 0C766.7 0 733.3 0 700 0C666.7 0 633.3 0 600 0C566.7 0 533.3 0 500 0C466.7 0 433.3 0 400 0C366.7 0 333.3 0 300 0C266.7 0 233.3 0 200 0C166.7 0 133.3 0 100 0C66.7 0 33.3 0 16.7 0L0 0Z" fill="#805696"></path><path d="M0 111L16.7 110.2C33.3 109.3 66.7 107.7 100 107C133.3 106.3 166.7 106.7 200 107.7C233.3 108.7 266.7 110.3 300 110.8C333.3 111.3 366.7 110.7 400 106.8C433.3 103 466.7 96 500 92.3C533.3 88.7 566.7 88.3 600 90.5C633.3 92.7 666.7 97.3 700 100.8C733.3 104.3 766.7 106.7 800 104C833.3 101.3 866.7 93.7 883.3 89.8L900 86L900 0L883.3 0C866.7 0 833.3 0 800 0C766.7 0 733.3 0 700 0C666.7 0 633.3 0 600 0C566.7 0 533.3 0 500 0C466.7 0 433.3 0 400 0C366.7 0 333.3 0 300 0C266.7 0 233.3 0 200 0C166.7 0 133.3 0 100 0C66.7 0 33.3 0 16.7 0L0 0Z" fill="#643c7a"></path><path d="M0 77L16.7 77.3C33.3 77.7 66.7 78.3 100 77C133.3 75.7 166.7 72.3 200 72.8C233.3 73.3 266.7 77.7 300 78.8C333.3 80 366.7 78 400 75.7C433.3 73.3 466.7 70.7 500 72.5C533.3 74.3 566.7 80.7 600 83.7C633.3 86.7 666.7 86.3 700 83.3C733.3 80.3 766.7 74.7 800 74.2C833.3 73.7 866.7 78.3 883.3 80.7L900 83L900 0L883.3 0C866.7 0 833.3 0 800 0C766.7 0 733.3 0 700 0C666.7 0 633.3 0 600 0C566.7 0 533.3 0 500 0C466.7 0 433.3 0 400 0C366.7 0 333.3 0 300 0C266.7 0 233.3 0 200 0C166.7 0 133.3 0 100 0C66.7 0 33.3 0 16.7 0L0 0Z" fill="#49235f"></path><path d="M0 57L16.7 57.5C33.3 58 66.7 59 100 56.3C133.3 53.7 166.7 47.3 200 47.7C233.3 48 266.7 55 300 55.8C333.3 56.7 366.7 51.3 400 48.5C433.3 45.7 466.7 45.3 500 46C533.3 46.7 566.7 48.3 600 49C633.3 49.7 666.7 49.3 700 48.3C733.3 47.3 766.7 45.7 800 46.8C833.3 48 866.7 52 883.3 54L900 56L900 0L883.3 0C866.7 0 833.3 0 800 0C766.7 0 733.3 0 700 0C666.7 0 633.3 0 600 0C566.7 0 533.3 0 500 0C466.7 0 433.3 0 400 0C366.7 0 333.3 0 300 0C266.7 0 233.3 0 200 0C166.7 0 133.3 0 100 0C66.7 0 33.3 0 16.7 0L0 0Z" fill="#2f0a45"></path><path d="M0 36L16.7 33.7C33.3 31.3 66.7 26.7 100 26.8C133.3 27 166.7 32 200 32.3C233.3 32.7 266.7 28.3 300 27.8C333.3 27.3 366.7 30.7 400 32.7C433.3 34.7 466.7 35.3 500 35.8C533.3 36.3 566.7 36.7 600 34C633.3 31.3 666.7 25.7 700 25.7C733.3 25.7 766.7 31.3 800 32.8C833.3 34.3 866.7 31.7 883.3 30.3L900 29L900 0L883.3 0C866.7 0 833.3 0 800 0C766.7 0 733.3 0 700 0C666.7 0 633.3 0 600 0C566.7 0 533.3 0 500 0C466.7 0 433.3 0 400 0C366.7 0 333.3 0 300 0C266.7 0 233.3 0 200 0C166.7 0 133.3 0 100 0C66.7 0 33.3 0 16.7 0L0 0Z" fill="#000000"></path></svg>